<?xml version="1.0" encoding="utf-8"?>
<!-- Generator: Adobe Illustrator 15.0.0, SVG Export Plug-In . SVG Version: 6.00 Build 0)  -->
<!DOCTYPE svg PUBLIC "-//W3C//DTD SVG 1.1//EN" "http://www.w3.org/Graphics/SVG/1.1/DTD/svg11.dtd">
<svg version="1.1" id="Layer_1" xmlns="http://www.w3.org/2000/svg" xmlns:xlink="http://www.w3.org/1999/xlink" x="0px" y="0px"
	 width="800px" height="600px" viewBox="0 0 800 600" enable-background="new 0 0 800 600" xml:space="preserve">
<path fill="#FE972C" d="M554.156,288.896c0,77.094-62.496,139.591-139.594,139.591c-77.095,0-139.593-62.497-139.593-139.591
	c0-77.097,62.498-139.595,139.593-139.595C491.66,149.301,554.156,211.799,554.156,288.896z"/>
<g>
	<path fill="#B3B3B3" d="M435.091,133.075c-0.282-8.67,4.2-15.474,9.431-21.671c4.459-5.283,9.635-9.98,14.635-14.786
		c8.748-8.403,17.604-16.691,26.802-25.393c1.345,4.647,3.022,9.386,4.044,14.26c1.24,5.916-1.947,10.125-6.549,13.237
		c-11.095,7.502-22.4,14.699-33.406,22.328C444.892,124.623,440.229,128.909,435.091,133.075z"/>
	<path fill="#B3B3B3" d="M630.392,357.952c-4.618,1.322-9.365,2.985-14.246,4.009c-5.558,1.164-9.576-1.967-12.487-6.178
		c-6.737-9.743-13.043-19.788-19.797-29.521c-4.45-6.411-9.375-12.49-14.728-19.565c3.857,1.078,7.556,1.589,10.771,3.11
		c9.353,4.43,16.534,11.605,23.406,19.2C612.052,338.673,621.105,348.057,630.392,357.952z"/>
	<path fill="#B3B3B3" d="M190.058,321.633c4.954-4.037,9.084-8.68,14.252-11.13c3.083-1.462,8.336-0.549,11.683,1.139
		c10.834,5.468,21.146,11.96,31.841,17.713c6.591,3.545,13.521,6.464,20.313,9.67c-5.25,3.111-11.59,3.68-17.61,2.041
		c-11.949-3.253-23.677-7.322-35.474-11.13C207.097,327.363,199.17,324.664,190.058,321.633z"/>
	<path fill="#B3B3B3" d="M542.359,374.451c8.964,4.771,13.157,12.2,16.161,20.081c3.324,8.721,5.57,17.854,8.277,26.811
		c2.612,8.641,5.219,17.284,8.1,26.823c-5.312-1.196-10.769-1.924-15.813-3.784c-2.368-0.874-5.058-3.646-5.653-6.041
		c-1.801-7.261-2.887-14.729-3.815-22.172C547.91,402.498,547.607,388.608,542.359,374.451z"/>
	<path fill="#B3B3B3" d="M576.05,127.387c-1.009,4.708-1.846,9.832-3.243,14.798c-1.699,6.036-7.076,7.417-12.292,8.221
		c-7.901,1.214-15.899,1.792-23.829,2.855c-11.168,1.495-22.312,3.181-33.797,4.835c1.997-2.208,4.007-5.059,6.608-7.185
		c7.654-6.25,16.811-9.467,26.179-12.121C548.932,135.029,562.197,131.298,576.05,127.387z"/>
	<path fill="#B3B3B3" d="M255.354,125.848c4.862,1.084,10.215,1.739,15.109,3.593c2.509,0.949,5.391,3.733,6.044,6.23
		c1.85,7.083,2.917,14.412,3.796,21.704c1.672,13.823,2.011,27.848,6.119,41.959c-2.511-2.261-5.354-4.245-7.47-6.828
		c-6.254-7.649-9.495-16.793-12.152-26.162C263.043,153.083,259.303,139.82,255.354,125.848z"/>
	<path fill="#B3B3B3" d="M509.466,410.096c4.433,3.757,6.317,8.988,7.357,14.326c1.146,5.869,1.962,11.933,1.86,17.892
		c-0.27,15.53-1.118,31.048-1.758,47.157c-4.225-2.441-8.883-4.757-13.117-7.678c-5.079-3.51-4.971-8.973-3.95-14.271
		c2.642-13.73,5.671-27.39,8.19-41.141C509.008,421.153,509.004,415.75,509.466,410.096z"/>
	<path fill="#B3B3B3" d="M253.974,446.518c0.906-4.516,1.7-9.49,2.955-14.346c0.937-3.634,3.345-6.364,7.2-7.099
		c6.772-1.288,13.555-2.657,20.396-3.411c14.14-1.557,28.426-2.046,42.799-6.127c-2.278,2.521-4.286,5.375-6.889,7.502
		c-7.655,6.252-16.82,9.463-26.183,12.122C281.001,438.923,267.734,442.639,253.974,446.518z"/>
	<path fill="#B3B3B3" d="M320.494,163.906c-5.696-5.32-7.937-12.31-8.26-19.426c-0.559-12.299,0.03-24.652,0.102-36.983
		c0.031-5.698-0.005-11.396-0.052-17.094c-0.014-1.792-0.164-3.585-0.303-6.395c5.035,2.788,9.459,4.896,13.516,7.567
		c5.464,3.599,5.688,9.211,4.573,14.921c-2.684,13.722-5.688,27.385-8.206,41.138C320.913,152.841,320.94,158.228,320.494,163.906z"
		/>
	<path fill="#B3B3B3" d="M449.674,510.695c-0.066-0.034-0.529-0.163-0.859-0.448c-13.678-11.785-14.315-16.525-5.264-32.293
		c6.884-11.994,13.42-24.188,19.955-36.377c1.346-2.514,2.002-5.399,3.104-8.465c3.481,5.8,3.945,12.004,2.551,17.977
		c-2.189,9.37-5.044,18.609-8.071,27.757C457.583,489.433,453.583,499.857,449.674,510.695z"/>
	<path fill="#B3B3B3" d="M394.688,441.591c0.072,8.563-4.475,15.405-9.888,21.473c-5.83,6.531-12.458,12.353-18.773,18.445
		c-7.16,6.905-14.361,13.771-21.993,21.082c-1.382-4.832-3.037-9.581-4.053-14.461c-1.16-5.564,1.984-9.573,6.194-12.479
		c9.499-6.555,19.303-12.662,28.781-19.242C381.618,451.781,387.948,446.677,394.688,441.591z"/>
	<path fill="#B3B3B3" d="M362.71,139.931c-2.794-5.005-3.337-11.189-1.917-17.179c2.222-9.365,5.057-18.606,8.086-27.75
		c3.504-10.58,7.494-20.996,11.703-32.673c3.887,4.869,8.517,9.26,11.208,14.625c1.385,2.757,0.196,7.686-1.372,10.874
		c-4.135,8.4-9.286,16.292-13.708,24.56C371.833,121.507,367.32,130.821,362.71,139.931z"/>
	<path fill="#B3B3B3" d="M617.323,185.03c-2.059,3.813-4.028,7.969-6.45,11.839c-3.678,5.878-9.421,6.401-15.543,5.187
		c-13.715-2.722-27.383-5.702-41.135-8.219c-5.097-0.934-10.372-0.875-16.189-1.313c3.95-4.512,9.184-6.448,14.594-7.429
		c6.037-1.098,12.241-1.936,18.357-1.83C586.201,183.524,601.438,184.383,617.323,185.03z"/>
	<path fill="#B3B3B3" d="M199.556,216.009c4.58-1.324,9.321-2.98,14.194-4.024c5.57-1.19,9.594,1.946,12.501,6.15
		c6.82,9.875,13.19,20.06,20.03,29.92c4.36,6.29,9.235,12.227,14.629,19.304c-4.151-1.236-7.922-1.868-11.247-3.443
		c-9.218-4.361-16.243-11.485-23.012-18.952C217.89,235.302,208.839,225.902,199.556,216.009z"/>
	<path fill="#B3B3B3" d="M562.009,234.717c5.012-2.794,11.194-3.336,17.181-1.915c9.364,2.223,18.606,5.057,27.752,8.084
		c10.58,3.504,20.996,7.492,32.671,11.702c-4.87,3.889-9.262,8.518-14.628,11.208c-2.757,1.387-7.684,0.195-10.873-1.372
		c-8.4-4.136-16.291-9.289-24.562-13.709C580.432,243.838,571.117,239.327,562.009,234.717z"/>
	<path fill="#B3B3B3" d="M211.813,390.396c2.854-5.294,4.824-9.451,7.249-13.319c3.677-5.876,9.418-6.402,15.542-5.185
		c13.714,2.724,27.383,5.698,41.133,8.217c5.096,0.935,10.374,0.874,16.042,1.304c-3.592,4.544-8.792,6.645-13.988,7.328
		c-8.814,1.162-17.775,1.423-26.684,1.595C238.478,390.578,225.84,390.396,211.813,390.396z"/>
	<path fill="#B3B3B3" d="M378.628,510.788c-1.894-3.892-4.158-8.078-6.003-12.444c-2.458-5.814,0.133-10.572,4.108-14.545
		c4.795-4.792,10.006-9.165,14.916-13.845c9.308-8.871,18.531-17.829,27.688-26.653c1.04,5.179-0.428,10.864-3.321,15.833
		c-4.557,7.813-9.617,15.372-14.971,22.672C393.873,491.586,386.221,501.014,378.628,510.788z"/>
	<path fill="#B3B3B3" d="M638.792,323.34c-4.012,1.917-8.325,4.219-12.822,6.072c-5.672,2.338-10.274-0.353-14.112-4.152
		c-4.816-4.77-9.181-9.994-13.859-14.906c-8.879-9.319-17.845-18.562-26.654-27.711c5.09-1.193,10.762,0.394,15.706,3.249
		c7.832,4.521,15.384,9.604,22.681,14.958C619.516,308.026,628.949,315.685,638.792,323.34z"/>
	<path fill="#B3B3B3" d="M410.499,130.684c-0.931-8.067,2.347-15.689,6.854-22.625c4.771-7.343,10.4-14.131,15.695-21.131
		c5.932-7.839,11.906-15.648,18.449-24.242c2.234,5.568,4.867,11.015,6.479,16.748c0.578,2.054-0.638,5.411-2.192,7.118
		c-5.378,5.9-11.226,11.383-16.972,16.941C429.43,112.568,419.986,121.579,410.499,130.684z"/>
	<path fill="#B3B3B3" d="M191.139,250.607c4.016-1.92,8.332-4.224,12.837-6.074c5.667-2.329,10.271,0.355,14.109,4.159
		c4.813,4.774,9.177,9.994,13.857,14.907c8.877,9.321,17.842,18.558,26.653,27.71c-5.096,1.184-10.771-0.403-15.719-3.259
		c-7.831-4.526-15.382-9.608-22.679-14.958C210.409,265.917,200.979,258.259,191.139,250.607z"/>
	<path fill="#B3B3B3" d="M386.416,133.923c-2.76-8.499-0.294-16.629,3.03-24.359c3.092-7.179,7.157-13.941,10.868-20.847
		c5.074-9.441,10.215-18.846,15.494-28.57c2.488,3.605,5.25,7.282,7.664,11.174c3.279,5.29,2.055,10.481-1.454,15.054
		c-7.697,10.025-15.77,19.765-23.426,29.82C394.334,121.788,390.606,127.785,386.416,133.923z"/>
	<path fill="#B3B3B3" d="M443.43,440.086c2.35,5.472,1.464,11.271-0.445,16.651c-2.551,7.203-5.637,14.278-9.176,21.053
		c-6.242,11.96-13,23.651-19.791,35.906c-2.585-3.831-5.653-7.786-8.068-12.108c-2.826-5.063-1.176-9.985,2.092-14.222
		c7.722-10.007,15.787-19.751,23.441-29.808C435.724,451.985,439.418,445.993,443.43,440.086z"/>
	<path fill="#B3B3B3" d="M280.917,469.871c0.221-4.996,0.116-10.215,0.761-15.336c0.718-5.693,5.351-8.125,10.133-9.612
		c8.646-2.688,17.483-4.762,26.153-7.38c10.066-3.037,20.037-6.383,29.966-9.567c-1.348,4.955-4.973,9.41-9.644,12.511
		c-7.148,4.743-14.653,9.039-22.323,12.893C304.6,459.087,292.956,464.241,280.917,469.871z"/>
	<path fill="#B3B3B3" d="M548.477,104.184c0,4.617,0.703,9.676-0.252,14.396c-0.615,3.044-3.074,6.947-5.735,8.109
		c-7.401,3.229-15.314,5.308-23.073,7.692c-12.516,3.844-25.068,7.569-37.319,11.258c1.302-4.705,4.881-9.302,9.659-12.24
		c9.135-5.618,18.682-10.606,28.238-15.501C529.276,113.139,538.789,108.824,548.477,104.184z"/>
	<path fill="#B3B3B3" d="M232.351,153.405c4.363,0,8.985-0.181,13.586,0.044c6.434,0.315,9.412,4.925,11.054,10.265
		c2.795,9.095,4.916,18.395,7.666,27.504c2.914,9.647,6.233,19.173,9.375,28.755c-4.97-1.339-9.296-5.002-12.534-9.589
		c-4.062-5.756-7.831-11.814-10.954-18.125C244.219,179.475,238.413,166.433,232.351,153.405z"/>
	<path fill="#B3B3B3" d="M555.754,353.911c5.289,1.63,9.898,5.167,12.9,9.981c5.272,8.453,10.025,17.257,14.544,26.146
		c5.072,9.974,9.646,20.201,14.75,30.985c-5.163-0.242-10.498-0.107-15.707-0.842c-5.663-0.8-7.974-5.538-9.402-10.338
		c-3.02-10.15-5.472-20.47-8.531-30.609C561.744,370.747,558.65,362.42,555.754,353.911z"/>
	<path fill="#B3B3B3" d="M188.367,286.034c3.183-2.263,6.594-4.886,10.199-7.211c5.508-3.552,10.967-2.646,15.887,1.147
		c10.008,7.72,19.756,15.778,29.812,23.434c5.585,4.251,11.576,7.973,17.548,12.043c-5.37,2.348-11.105,1.403-16.489-0.39
		c-6.523-2.178-12.974-4.813-19.053-8.017C213.65,300.395,201.294,293.238,188.367,286.034z"/>
	<path fill="#B3B3B3" d="M641.673,287.894c-3.478,2.403-7.146,5.164-11.033,7.576c-5.282,3.286-10.479,2.077-15.055-1.433
		c-10.025-7.697-19.762-15.77-29.818-23.424c-5.595-4.261-11.598-7.99-17.647-12.115c5.316-2.354,11.081-1.487,16.37,0.367
		c7.355,2.58,14.554,5.772,21.468,9.374C617.918,274.472,629.605,281.218,641.673,287.894z"/>
	<path fill="#B3B3B3" d="M522.306,173.637c2.822-4.44,7.74-7.424,13.155-8.973c8.071-2.311,16.331-4.192,24.633-5.44
		c12.688-1.908,25.48-3.123,39.361-4.768c-2.524,5.541-4.441,11.569-7.895,16.527c-1.607,2.307-6.185,3.496-9.433,3.53
		c-10.773,0.115-21.555-0.64-32.34-0.841C540.607,173.5,531.421,173.637,522.306,173.637z"/>
	<path fill="#B3B3B3" d="M547.702,471.281c-5.172-2.105-10.347-3.874-15.2-6.285c-4.389-2.181-5.313-6.624-5.211-11.077
		c0.26-11.553,0.829-23.099,1.075-34.651c0.179-8.259,0.034-16.52,0.034-24.388c3.029,1.191,6.256,5.675,9.092,12.741
		c4.434,11.035,4.775,22.779,6.318,34.322C545.068,451.354,546.31,460.768,547.702,471.281z"/>
	<path fill="#B3B3B3" d="M282.378,102.56c5.293,2.285,10.714,4.242,15.749,6.919c3.955,2.105,4.6,6.418,4.509,10.494
		c-0.258,11.707-0.836,23.407-1.095,35.115c-0.178,8.103-0.032,16.212-0.032,24.991c-2.113-2.7-4.686-5.277-6.42-8.329
		c-5.604-9.849-6.868-20.867-8.109-31.889C285.623,127.832,284.025,115.826,282.378,102.56z"/>
	<path fill="#B3B3B3" d="M278.364,362.083c-3.964,1.228-7.852,2.905-11.906,3.598c-12.611,2.151-24.747-1.333-36.962-3.703
		c-9.931-1.929-19.881-3.746-30.289-5.7c3.252-4.849,6.194-10.927,12.094-13.735c3.051-1.452,7.693-1.165,11.075-0.036
		c12.525,4.172,24.768,9.178,37.23,13.547c5.909,2.073,12.074,3.415,18.122,5.089C277.94,361.454,278.152,361.771,278.364,362.083z"
		/>
	<path fill="#B3B3B3" d="M484.212,502.66c-0.702-0.449-1.618-1.01-2.505-1.613c-14.01-9.54-14.965-13.249-8.944-29.247
		c5.237-13.929,10.004-28.034,14.886-42.095c0.629-1.813,0.7-3.817,1.032-5.732c0.426-0.142,0.852-0.282,1.279-0.425
		c1.263,3.901,3.558,7.794,3.583,11.702c0.06,9.006-0.379,18.112-1.719,27.012C489.796,475.71,486.83,489.019,484.212,502.66z"/>
	<path fill="#B3B3B3" d="M339.841,150.364c-1.221-3.969-2.914-7.86-3.581-11.919c-2.365-14.378,2.223-28.043,4.782-41.913
		c1.529-8.288,2.897-16.602,4.429-25.444c5.048,3.384,11.13,6.326,13.931,12.236c1.447,3.056,1.153,7.696,0.024,11.081
		c-4.172,12.521-9.18,24.763-13.548,37.225c-2.073,5.908-3.41,12.076-5.081,18.122C340.481,149.958,340.159,150.16,339.841,150.364z
		"/>
	<path fill="#B3B3B3" d="M311.268,488.406c-0.438-2.88-0.872-6.067-1.413-9.24c-1.498-8.778,0.202-12.896,8.354-16.923
		c10.478-5.173,21.307-9.628,31.828-14.719c7.019-3.398,13.76-7.365,21.381-11.485c-1.532,3.399-2.322,7.148-4.525,9.661
		c-5.055,5.767-10.24,11.69-16.376,16.182C337.868,471.141,324.563,479.502,311.268,488.406z"/>
	<path fill="#B3B3B3" d="M631.096,217.708c-3.099,3.847-6.109,7.874-9.422,11.635c-4.003,4.549-9.254,3.906-14.116,2.2
		c-12.604-4.422-25.01-9.412-37.609-13.838c-5.764-2.025-11.803-3.262-17.994-4.931c2.924-3.217,7.227-3.906,11.475-4.571
		c12.802-2.001,25.057,1.467,37.424,3.843C610.639,213.925,620.441,215.717,631.096,217.708z"/>
	<path fill="#B3B3B3" d="M564.314,331.059c8.426,1.327,14.506,6.85,19.726,13.119c5.112,6.144,9.46,12.929,14.04,19.506
		c6.152,8.825,12.211,17.722,18.552,26.939c-4.31,0.644-8.899,1.611-13.538,1.956c-6.437,0.472-10.353-3.41-12.867-8.78
		c-5.024-10.723-9.685-21.62-14.838-32.277C572.062,344.635,568.121,338.045,564.314,331.059z"/>
	<path fill="#B3B3B3" d="M307.509,400.422c-2.832,4.439-7.925,6.849-13.19,9.041c-10.981,4.572-22.768,4.801-34.305,6.354
		c-9.409,1.267-18.82,2.494-28.193,3.735c-0.873-11.363,6.792-20.324,18.504-20.243c10.78,0.073,21.555,0.833,32.335,1.075
		C290.917,400.571,299.183,400.422,307.509,400.422z"/>
	<path fill="#B3B3B3" d="M518.666,85.539c0.402,2.685,0.828,5.707,1.304,8.718c1.539,9.747-0.062,13.544-8.975,17.906
		c-10.634,5.208-21.62,9.689-32.293,14.82c-6.615,3.178-12.931,6.981-20.151,10.925c1.504-3.382,2.26-7.128,4.449-9.607
		c5.18-5.861,10.486-11.877,16.744-16.466C492.262,102.654,505.454,94.384,518.666,85.539z"/>
	<path fill="#B3B3B3" d="M265.354,242.831c-8.036-1.197-14.196-6.616-19.303-12.913c-6.004-7.405-11.121-15.525-16.615-23.344
		c-5.372-7.643-10.729-15.296-16.267-23.194c4.135-0.675,8.305-1.541,12.519-2.004c6.76-0.742,11.185,2.764,13.914,8.569
		c4.388,9.322,8.431,18.807,12.925,28.076C256.596,226.407,261.075,234.595,265.354,242.831z"/>
</g>
<polygon fill="#859331" points="736.087,388 95.113,388 149.341,286 681.859,286 "/>
<text transform="matrix(1 0 0 1 298.4946 278.1221)" fill="#FFFFFF" font-family="'CenturyGothic-Bold'" font-size="86.173">SOVY</text>
<text transform="matrix(1 0 0 1 195.8354 368.0576)" fill="#F2F2F2" font-family="'CenturyGothic-Bold'" font-size="92.1874">restaurant</text>
</svg>
